# Blender 4.4.3
# www.blender.org
mtllib cube_filled.mtl
o Cube.001
v -1.000000 -0.900000 0.900000
v -1.000000 0.900000 0.900000
v -1.000000 -0.900000 -0.900000
v -1.000000 0.900000 -0.900000
v 0.900000 -0.900000 1.000000
v 0.900000 0.900000 1.000000
v 1.000000 -0.900000 -0.900000
v 0.900000 1.000000 -0.900000
v -0.900000 -0.900000 1.000000
v -0.900000 0.900000 1.000000
v -0.900000 1.000000 -0.900000
v -0.900000 1.000000 0.900000
v 0.900000 1.000000 0.900000
v 1.000000 -0.900000 0.900000
v -0.900000 0.900000 -1.000000
v 1.000000 0.900000 -0.900000
v 1.000000 0.900000 0.900000
v 0.900000 0.900000 -1.000000
v -0.900000 -0.900000 -1.000000
v 0.900000 -0.900000 -1.000000
v -1.000000 -0.900000 0.900000
v -1.000000 0.900000 0.900000
v -1.000000 -0.900000 -0.900000
v -1.000000 0.900000 -0.900000
v 0.900000 -0.900000 1.000000
v 0.900000 0.900000 1.000000
v 1.000000 -0.900000 -0.900000
v 0.900000 1.000000 -0.900000
v -0.900000 -0.900000 1.000000
v -0.900000 0.900000 1.000000
v -0.900000 1.000000 -0.900000
v -0.900000 1.000000 0.900000
v 0.900000 1.000000 0.900000
v 1.000000 -0.900000 0.900000
v -1.000000 1.000000 1.000000
v -0.900000 0.900000 -1.000000
v 1.000000 0.900000 -0.900000
v 1.000000 0.900000 0.900000
v 0.900000 0.900000 -1.000000
v 1.000000 1.000000 1.000000
v -0.900000 -0.900000 -1.000000
v -1.000000 -1.000000 1.000000
v 0.900000 -0.900000 -1.000000
v 1.000000 -1.000000 1.000000
v -1.000000 1.000000 -1.000000
v -1.000000 -1.000000 -1.000000
v 1.000000 -1.000000 -1.000000
v 1.000000 1.000000 -1.000000
vn -1.0000 -0.0000 -0.0000
vn -0.0000 -0.0000 -1.0000
vn 1.0000 -0.0000 -0.0000
vn -0.0000 -0.0000 1.0000
vn -0.0000 1.0000 -0.0000
vt 0.639077 0.053940
vt 0.639077 0.946060
vt 0.639077 0.946060
vt 0.639077 0.053940
vt 0.946060 0.053940
vt 0.946060 0.946060
vt 0.053940 0.946060
vt 0.053940 0.053940
vt 0.534545 0.053940
vt 0.534545 0.946060
vt 0.534545 0.946060
vt 0.534545 0.053940
vt 0.053940 0.053940
vt 0.053940 0.946060
vt 0.946060 0.946060
vt 0.946060 0.053940
vt 0.053940 0.536764
vt 0.946060 0.536764
vt 0.946060 0.536764
vt 0.053940 0.536764
vt 0.995622 0.053940
vt 0.995622 0.053940
vt 0.995622 0.004378
vt 0.995622 0.004378
vt 0.995622 0.946060
vt 0.995622 0.995622
vt 0.995622 0.946060
vt 0.995622 0.995622
vt 0.004378 0.004378
vt 0.004378 0.995622
vt 0.946060 0.995622
vt 0.946060 0.995622
vt 0.053940 0.995622
vt 0.004378 0.995622
vt 0.053940 0.995622
vt 0.004378 0.946060
vt 0.004378 0.053940
vt 0.004378 0.004378
vt 0.004378 0.053940
vt 0.004378 0.946060
s 0
usemtl Material.001
f 1/1/1 2/2/1 4/3/1 3/4/1
f 19/5/2 15/6/2 18/7/2 20/8/2
f 7/9/3 16/10/3 17/11/3 14/12/3
f 5/13/4 6/14/4 10/15/4 9/16/4
f 8/17/5 11/18/5 12/19/5 13/20/5
f 21/21/1 23/22/1 46/23/1 42/24/1
f 22/25/1 21/21/1 42/24/1 35/26/1
f 24/27/1 22/25/1 35/26/1 45/28/1
f 23/22/1 24/27/1 45/28/1 46/23/1
f 29/16/4 30/15/4 35/26/4 42/24/4
f 26/14/4 25/13/4 44/29/4 40/30/4
f 25/13/4 29/16/4 42/24/4 44/29/4
f 30/15/4 26/14/4 40/30/4 35/26/4
f 32/31/5 31/32/5 45/28/5 35/26/5
f 31/32/5 28/33/5 48/34/5 45/28/5
f 28/33/5 33/35/5 40/30/5 48/34/5
f 33/35/5 32/31/5 35/26/5 40/30/5
f 37/36/3 27/37/3 47/38/3 48/34/3
f 27/37/3 34/39/3 44/29/3 47/38/3
f 38/40/3 37/36/3 48/34/3 40/30/3
f 34/39/3 38/40/3 40/30/3 44/29/3
f 36/6/2 41/5/2 46/23/2 45/28/2
f 41/5/2 43/8/2 47/38/2 46/23/2
f 39/7/2 36/6/2 45/28/2 48/34/2
f 43/8/2 39/7/2 48/34/2 47/38/2
