<?xml version="1.0" encoding="UTF-8" standalone="no"?>
<!-- Created with Inkscape (http://www.inkscape.org/) -->

<svg
   width="210mm"
   height="297mm"
   viewBox="0 0 210 297"
   version="1.1"
   id="svg5"
   inkscape:version="1.2.2 (732a01da63, 2022-12-09)"
   sodipodi:docname="grid.svg"
   xmlns:inkscape="http://www.inkscape.org/namespaces/inkscape"
   xmlns:sodipodi="http://sodipodi.sourceforge.net/DTD/sodipodi-0.dtd"
   xmlns="http://www.w3.org/2000/svg"
   xmlns:svg="http://www.w3.org/2000/svg">
  <sodipodi:namedview
     id="namedview7"
     pagecolor="#505050"
     bordercolor="#ffffff"
     borderopacity="1"
     inkscape:showpageshadow="0"
     inkscape:pageopacity="0"
     inkscape:pagecheckerboard="1"
     inkscape:deskcolor="#505050"
     inkscape:document-units="mm"
     showgrid="true"
     inkscape:zoom="0.73851712"
     inkscape:cx="268.78185"
     inkscape:cy="651.30515"
     inkscape:window-width="1920"
     inkscape:window-height="1009"
     inkscape:window-x="1912"
     inkscape:window-y="-8"
     inkscape:window-maximized="1"
     inkscape:current-layer="layer1" />
  <defs
     id="defs2">
    <inkscape:path-effect
       effect="fillet_chamfer"
       id="path-effect369"
       is_visible="true"
       lpeversion="1"
       nodesatellites_param="F,0,0,1,0,0,0,1 @ F,0,0,1,0,2.9104167,0,1 | F,0,0,1,0,0,0,1 @ F,0,0,1,0,2.9104167,0,1 | F,0,0,1,0,0,0,1 @ F,0,0,1,0,2.9104167,0,1 | F,0,0,1,0,0,0,1 @ F,0,0,1,0,2.9104167,0,1 | F,0,0,1,0,0,0,1 @ F,0,0,1,0,2.9104167,0,1 | F,0,0,1,0,0,0,1 @ F,0,0,1,0,2.9104167,0,1 | F,0,0,1,0,0,0,1 @ F,0,0,1,0,2.9104167,0,1 | F,0,0,1,0,0,0,1 @ F,0,0,1,0,2.9104167,0,1 | F,0,0,1,0,0,0,1 @ F,0,0,1,0,2.9104167,0,1 | F,0,0,1,0,0,0,1 @ F,0,0,1,0,2.9104167,0,1 | F,0,0,1,0,0,0,1 @ F,0,0,1,0,2.9104167,0,1 | F,0,0,1,0,0,0,1 @ F,0,0,1,0,2.9104167,0,1 | F,0,0,1,0,0,0,1 @ F,0,0,1,0,2.9104167,0,1 | F,0,0,1,0,0,0,1 @ F,0,0,1,0,2.9104167,0,1 | F,0,0,1,0,0,0,1 @ F,0,0,1,0,2.9104167,0,1 | F,0,0,1,0,0,0,1 @ F,0,0,1,0,2.9104167,0,1 | F,0,0,1,0,0,0,1 @ F,0,0,1,0,2.9104167,0,1 | F,0,0,1,0,0,0,1 @ F,0,0,1,0,2.9104167,0,1 | F,0,0,1,0,0,0,1 @ F,0,0,1,0,2.9104167,0,1 | F,0,0,1,0,0,0,1 @ F,0,0,1,0,2.9104167,0,1 | F,0,0,1,0,0,0,1 @ F,0,0,1,0,2.9104167,0,1 | F,0,0,1,0,0,0,1 @ F,0,0,1,0,2.9104167,0,1 | F,0,0,1,0,0,0,1 @ F,0,0,1,0,2.9104167,0,1 | F,0,0,1,0,0,0,1 @ F,0,0,1,0,2.9104167,0,1 | F,0,0,1,0,0,0,1 @ F,0,0,1,0,2.9104167,0,1 | F,0,0,1,0,0,0,1 @ F,0,0,1,0,2.9104167,0,1 | F,0,0,1,0,0,0,1 @ F,0,0,1,0,2.9104167,0,1 | F,0,0,1,0,0,0,1 @ F,0,0,1,0,2.9104167,0,1 | F,0,0,1,0,0,0,1 @ F,0,0,1,0,2.9104167,0,1 | F,0,0,1,0,0,0,1 @ F,0,0,1,0,2.9104167,0,1 | F,0,0,1,0,0,0,1 @ F,0,0,1,0,2.9104167,0,1 | F,0,0,1,0,0,0,1 @ F,0,0,1,0,2.9104167,0,1 | F,0,0,1,0,0,0,1 @ F,0,0,1,0,2.9104167,0,1 | F,0,0,1,0,0,0,1 @ F,0,0,1,0,2.9104167,0,1 | F,0,0,1,0,0,0,1 @ F,0,0,1,0,2.9104167,0,1 | F,0,0,1,0,0,0,1 @ F,0,0,1,0,2.9104167,0,1 | F,0,0,1,0,0,0,1 @ F,0,0,1,0,2.9104167,0,1 | F,0,0,1,0,0,0,1 @ F,0,0,1,0,2.9104167,0,1 | F,0,0,1,0,0,0,1 @ F,0,0,1,0,2.9104167,0,1 | F,0,0,1,0,0,0,1 @ F,0,0,1,0,2.9104167,0,1 | F,0,0,1,0,0,0,1 @ F,0,0,1,0,2.9104167,0,1 | F,0,0,1,0,0,0,1 @ F,0,0,1,0,2.9104167,0,1 | F,0,0,1,0,0,0,1 @ F,0,0,1,0,2.9104167,0,1 | F,0,0,1,0,0,0,1 @ F,0,0,1,0,2.9104167,0,1 | F,0,0,1,0,0,0,1 @ F,0,0,1,0,2.9104167,0,1 | F,0,0,1,0,0,0,1 @ F,0,0,1,0,2.9104167,0,1 | F,0,0,1,0,0,0,1 @ F,0,0,1,0,2.9104167,0,1 | F,0,0,1,0,0,0,1 @ F,0,0,1,0,2.9104167,0,1 | F,0,0,1,0,0,0,1 @ F,0,0,1,0,2.9104167,0,1 | F,0,0,1,0,0,0,1 @ F,0,0,1,0,2.9104167,0,1 | F,0,0,1,0,0,0,1 @ F,0,0,1,0,2.9104167,0,1 | F,0,0,1,0,0,0,1 @ F,0,0,1,0,2.9104167,0,1 | F,0,0,1,0,0,0,1 @ F,0,0,1,0,2.9104167,0,1 | F,0,0,1,0,0,0,1 @ F,0,0,1,0,2.9104167,0,1 | F,0,0,1,0,0,0,1 @ F,0,0,1,0,2.9104167,0,1 | F,0,0,1,0,0,0,1 @ F,0,0,1,0,2.9104167,0,1 | F,0,0,1,0,0,0,1 @ F,0,0,1,0,2.9104167,0,1 | F,0,0,1,0,0,0,1 @ F,0,0,1,0,2.9104167,0,1 | F,0,0,1,0,0,0,1 @ F,0,0,1,0,2.9104167,0,1 | F,0,0,1,0,0,0,1 @ F,0,0,1,0,2.9104167,0,1 | F,0,0,1,0,0,0,1 @ F,0,0,1,0,2.9104167,0,1 | F,0,0,1,0,0,0,1 @ F,0,0,1,0,2.9104167,0,1 | F,0,0,1,0,0,0,1 @ F,0,0,1,0,2.9104167,0,1 | F,0,0,1,0,0,0,1 @ F,0,0,1,0,2.9104167,0,1 | F,0,0,1,0,0,0,1 @ F,0,0,1,0,2.9104167,0,1 | F,0,0,1,0,0,0,1 @ F,0,0,1,0,2.9104167,0,1 | F,0,0,1,0,0,0,1 @ F,0,0,1,0,2.9104167,0,1 | F,0,0,1,0,0,0,1 @ F,0,0,1,0,2.9104167,0,1 | F,0,0,1,0,0,0,1 @ F,0,0,1,0,2.9104167,0,1 | F,0,0,1,0,0,0,1 @ F,0,0,1,0,2.9104167,0,1 | F,0,0,1,0,0,0,1 @ F,0,0,1,0,2.9104167,0,1 | F,0,0,1,0,0,0,1 @ F,0,0,1,0,2.9104167,0,1 | F,0,0,1,0,0,0,1 @ F,0,0,1,0,2.9104167,0,1 | F,0,0,1,0,0,0,1 @ F,0,0,1,0,2.9104167,0,1 | F,0,0,1,0,0,0,1 @ F,0,0,1,0,2.9104167,0,1 | F,0,0,1,0,0,0,1 @ F,0,0,1,0,2.9104167,0,1 | F,0,0,1,0,0,0,1 @ F,0,0,1,0,2.9104167,0,1 | F,0,0,1,0,0,0,1 @ F,0,0,1,0,2.9104167,0,1 | F,0,0,1,0,0,0,1 @ F,0,0,1,0,2.9104167,0,1 | F,0,0,1,0,0,0,1 @ F,0,0,1,0,2.9104167,0,1 | F,0,0,1,0,0,0,1 @ F,0,0,1,0,2.9104167,0,1 | F,0,0,1,0,0,0,1 @ F,0,0,1,0,2.9104167,0,1 | F,0,0,1,0,0,0,1 @ F,0,0,1,0,2.9104167,0,1 | F,0,0,1,0,0,0,1 @ F,0,0,1,0,2.9104167,0,1 | F,0,0,1,0,0,0,1 @ F,0,0,1,0,2.9104167,0,1 | F,0,0,1,0,0,0,1 @ F,0,0,1,0,2.9104167,0,1 | F,0,0,1,0,0,0,1 @ F,0,0,1,0,2.9104167,0,1 | F,0,0,1,0,0,0,1 @ F,0,0,1,0,2.9104167,0,1 | F,0,0,1,0,0,0,1 @ F,0,0,1,0,2.9104167,0,1 | F,0,0,1,0,0,0,1 @ F,0,0,1,0,2.9104167,0,1 | F,0,0,1,0,0,0,1 @ F,0,0,1,0,2.9104167,0,1 | F,0,0,1,0,0,0,1 @ F,0,0,1,0,2.9104167,0,1 | F,0,0,1,0,0,0,1 @ F,0,0,1,0,2.9104167,0,1 | F,0,0,1,0,0,0,1 @ F,0,0,1,0,2.9104167,0,1 | F,0,0,1,0,0,0,1 @ F,0,0,1,0,2.9104167,0,1 | F,0,0,1,0,0,0,1 @ F,0,0,1,0,2.9104167,0,1 | F,0,0,1,0,0,0,1 @ F,0,0,1,0,2.9104167,0,1"
       unit="px"
       method="auto"
       mode="F"
       radius="11"
       chamfer_steps="1"
       flexible="false"
       use_knot_distance="true"
       apply_no_radius="true"
       apply_with_radius="true"
       only_selected="false"
       hide_knots="false" />
  </defs>
  <g
     inkscape:label="Layer 1"
     inkscape:groupmode="layer"
     id="layer1">
    <path
       d="M 0,0 V 296.99999 M 5.2916665,0 V 296.99999 M 10.583333,0 V 296.99999 M 15.875,0 V 296.99999 M 21.166666,0 V 296.99999 M 26.458333,0 V 296.99999 M 31.749999,0 V 296.99999 M 37.041666,0 V 296.99999 M 42.333332,0 V 296.99999 M 47.624999,0 V 296.99999 M 52.916665,0 V 296.99999 M 58.208332,0 V 296.99999 M 63.499999,0 V 296.99999 M 68.791665,0 V 296.99999 M 74.083332,0 V 296.99999 M 79.374998,0 V 296.99999 M 84.666665,0 V 296.99999 M 89.958331,0 V 296.99999 M 95.249998,0 V 296.99999 M 100.54166,0 V 296.99999 M 105.83333,0 V 296.99999 M 111.125,0 V 296.99999 M 116.41666,0 V 296.99999 M 121.70833,0 V 296.99999 M 127,0 V 296.99999 M 132.29166,0 V 296.99999 M 137.58333,0 V 296.99999 M 142.875,0 V 296.99999 M 148.16666,0 V 296.99999 M 153.45833,0 V 296.99999 M 158.75,0 V 296.99999 M 164.04166,0 V 296.99999 M 169.33333,0 V 296.99999 M 174.625,0 V 296.99999 M 179.91666,0 V 296.99999 M 185.20833,0 V 296.99999 M 190.5,0 V 296.99999 M 195.79166,0 V 296.99999 M 201.08333,0 V 296.99999 M 206.375,0 V 296.99999 M 0,0 H 210 M 0,5.2916665 H 210 M 0,10.583333 H 210 M 0,15.875 H 210 M 0,21.166666 H 210 M 0,26.458333 H 210 M 0,31.749999 H 210 M 0,37.041666 H 210 M 0,42.333332 H 210 M 0,47.624999 H 210 M 0,52.916665 H 210 M 0,58.208332 H 210 M 0,63.499999 H 210 M 0,68.791665 H 210 M 0,74.083332 H 210 M 0,79.374998 H 210 M 0,84.666665 H 210 M 0,89.958331 H 210 M 0,95.249998 H 210 M 0,100.54166 H 210 M 0,105.83333 H 210 M 0,111.125 H 210 M 0,116.41666 H 210 M 0,121.70833 H 210 M 0,127 H 210 M 0,132.29166 H 210 M 0,137.58333 H 210 M 0,142.875 H 210 M 0,148.16666 H 210 M 0,153.45833 H 210 M 0,158.75 H 210 M 0,164.04166 H 210 M 0,169.33333 H 210 M 0,174.625 H 210 M 0,179.91666 H 210 M 0,185.20833 H 210 M 0,190.5 H 210 M 0,195.79166 H 210 M 0,201.08333 H 210 M 0,206.375 H 210 M 0,211.66666 H 210 M 0,216.95833 H 210 M 0,222.24999 H 210 M 0,227.54166 H 210 M 0,232.83333 H 210 M 0,238.12499 H 210 M 0,243.41666 H 210 M 0,248.70833 H 210 M 0,253.99999 H 210 M 0,259.29166 H 210 M 0,264.58333 H 210 M 0,269.87499 H 210 M 0,275.16666 H 210 M 0,280.45833 H 210 M 0,285.74999 H 210 M 0,291.04166 H 210 M 0,296.33333 h 210"
       style="fill:none;stroke:#ffffff;stroke-width:0.79375px;fill-opacity:1;stroke-opacity:1"
       id="path212"
       inkscape:label="grid"
       inkscape:path-effect="#path-effect369"
       inkscape:original-d="M 0,0 0,296.99999 M 5.2916665,0 l 0,296.99999 M 10.583333,0 l 0,296.99999 M 15.875,0 l 0,296.99999 M 21.166666,0 l 0,296.99999 M 26.458333,0 l 0,296.99999 M 31.749999,0 l 0,296.99999 M 37.041666,0 l 0,296.99999 M 42.333332,0 l 0,296.99999 M 47.624999,0 l 0,296.99999 M 52.916665,0 l 0,296.99999 M 58.208332,0 l 0,296.99999 M 63.499999,0 l 0,296.99999 M 68.791665,0 l 0,296.99999 M 74.083332,0 l 0,296.99999 M 79.374998,0 l 0,296.99999 M 84.666665,0 l 0,296.99999 M 89.958331,0 l 0,296.99999 M 95.249998,0 l 0,296.99999 M 100.54166,0 l 0,296.99999 M 105.83333,0 l 0,296.99999 M 111.125,0 l 0,296.99999 M 116.41666,0 l 0,296.99999 M 121.70833,0 l 0,296.99999 M 127,0 127,296.99999 M 132.29166,0 l 0,296.99999 M 137.58333,0 l 0,296.99999 M 142.875,0 l 0,296.99999 M 148.16666,0 l 0,296.99999 M 153.45833,0 l 0,296.99999 M 158.75,0 l 0,296.99999 M 164.04166,0 l 0,296.99999 M 169.33333,0 l 0,296.99999 M 174.625,0 l 0,296.99999 M 179.91666,0 l 0,296.99999 M 185.20833,0 l 0,296.99999 M 190.5,0 l 0,296.99999 M 195.79166,0 l 0,296.99999 M 201.08333,0 l 0,296.99999 M 206.375,0 l 0,296.99999 M 0,0 210,0 M 0,5.2916665 l 210,0 M 0,10.583333 l 210,0 M 0,15.875 l 210,0 m -210,5.291666 210,0 m -210,5.291667 210,0 m -210,5.291666 210,0 m -210,5.291667 210,0 m -210,5.291666 210,0 m -210,5.291667 210,0 m -210,5.291666 210,0 m -210,5.291667 210,0 m -210,5.291667 210,0 m -210,5.291666 210,0 m -210,5.291667 210,0 m -210,5.291666 210,0 m -210,5.291667 210,0 m -210,5.291666 210,0 m -210,5.291667 210,0 m -210,5.291662 210,0 m -210,5.29167 210,0 M 0,111.125 l 210,0 m -210,5.29166 210,0 m -210,5.29167 210,0 M 0,127 l 210,0 m -210,5.29166 210,0 m -210,5.29167 210,0 M 0,142.875 l 210,0 m -210,5.29166 210,0 m -210,5.29167 210,0 M 0,158.75 l 210,0 m -210,5.29166 210,0 m -210,5.29167 210,0 M 0,174.625 l 210,0 m -210,5.29166 210,0 m -210,5.29167 210,0 M 0,190.5 l 210,0 m -210,5.29166 210,0 m -210,5.29167 210,0 M 0,206.375 l 210,0 m -210,5.29166 210,0 m -210,5.29167 210,0 m -210,5.29166 210,0 m -210,5.29167 210,0 m -210,5.29167 210,0 m -210,5.29166 210,0 m -210,5.29167 210,0 m -210,5.29167 210,0 m -210,5.29166 210,0 m -210,5.29167 210,0 m -210,5.29167 210,0 m -210,5.29166 210,0 m -210,5.29167 210,0 m -210,5.29167 210,0 m -210,5.29166 210,0 m -210,5.29167 210,0 m -210,5.29167 210,0"
       inkscape:export-filename="grid.png"
       inkscape:export-xdpi="96"
       inkscape:export-ydpi="96" />
  </g>
</svg>
